<?xml version="1.0" encoding="UTF-8" standalone="no"?>
<!-- Created with Inkscape (http://www.inkscape.org/) -->

<svg
   version="1.1"
   id="svg1"
   width="256"
   height="256"
   viewBox="0 0 256 256"
   xmlns:xlink="http://www.w3.org/1999/xlink"
   xmlns="http://www.w3.org/2000/svg"
   xmlns:svg="http://www.w3.org/2000/svg">
  <defs
     id="defs1" />
  <g
     id="g1">
    <path
       d="m 96,248 v -8 H 80 64 v -8 -8 h -8 -8 v -8 -8 h -8 -8 v -8 -8 h -8 -8 v -8 -8 H 8 0 V 128 80 h 8 8 v -8 -8 h 8 8 v -8 -8 h 8 8 v -8 -8 h 8 8 V 24 16 H 80 96 V 8 0 h 32 32 v 8 8 h 16 16 v 8 8 h 8 8 v 8 8 h 8 8 v 8 8 h 8 8 v 8 8 h 8 8 v 48 48 h -8 -8 v 8 8 h -8 -8 v 8 8 h -8 -8 v 8 8 h -8 -8 v 8 8 h -16 -16 v 8 8 H 128 96 Z m 96,-80 v -8 H 128 64 v 8 8 h 64 64 z M 80,104 v -8 h 8 8 v 8 8 h 8 8 v -8 -8 h -8 -8 v -8 -8 h 8 8 v -8 -8 h -8 -8 v 8 8 h -8 -8 v -8 -8 h -8 -8 v 8 8 h 8 8 v 8 8 h -8 -8 v 8 8 h 8 8 z m 80,0 v -8 h 8 8 v 8 8 h 8 8 v -8 -8 h -8 -8 v -8 -8 h 8 8 v -8 -8 h -8 -8 v 8 8 h -8 -8 v -8 -8 h -8 -8 v 8 8 h 8 8 v 8 8 h -8 -8 v 8 8 h 8 8 z"
       id="path1" />
  </g>
</svg>
