<?xml version="1.0" encoding="UTF-8" standalone="no"?>
<!-- Created with Inkscape (http://www.inkscape.org/) -->

<svg
   version="1.1"
   id="svg1"
   width="256"
   height="256"
   viewBox="0 0 256 256"
   xmlns:xlink="http://www.w3.org/1999/xlink"
   xmlns="http://www.w3.org/2000/svg"
   xmlns:svg="http://www.w3.org/2000/svg">
  <defs
     id="defs1" />
  <g
     id="g1">
    <path
       d="m 96,240 v -16 h 24 24 v 16 16 H 120 96 Z m 0,-64 v -32 h 8 8 v -8 -8 h 24 24 v -8 -8 h 8 8 v -8 -8 h 8 8 V 80 64 H 176 160 V 56 48 H 128 96 v 8 8 H 80 64 v 16 16 h -8 -8 v 8 8 H 24 0 V 80 48 h 8 8 v -8 -8 h 8 8 v -8 -8 h 8 8 V 8 0 h 80 80 v 8 8 h 8 8 v 8 8 h 8 8 v 8 8 h 8 8 v 32 32 h -8 -8 v 8 8 h -8 -8 v 8 8 h -8 -8 v 8 8 h -8 -8 v 8 8 h -24 -24 v 16 16 H 120 96 Z"
       id="path1" />
  </g>
</svg>
