<?xml version="1.0" encoding="UTF-8" standalone="no"?>
<!-- Created with Inkscape (http://www.inkscape.org/) -->

<svg
   version="1.1"
   id="svg1"
   width="256"
   height="256"
   viewBox="0 0 256 256"
   xmlns:xlink="http://www.w3.org/1999/xlink"
   xmlns="http://www.w3.org/2000/svg"
   xmlns:svg="http://www.w3.org/2000/svg">
  <defs
     id="defs1" />
  <g
     id="g1">
    <path
       d="m 80,248 v -8 h -8 -8 v -8 -8 H 48 32 v -8 -8 h -8 -8 v -8 -8 H 8 0 v -40 -40 h 8 8 V 96 80 h 8 8 v -8 -8 h 16 16 v -8 -8 h 8 8 v -8 -8 h 8 8 v -8 -8 h 32 32 v 8 8 h 8 8 v 8 8 h 8 8 v 8 8 h 16 16 v 8 8 h 8 8 v 8 8 h 8 8 v 40 40 h -8 -8 v 16 16 h -8 -8 v 8 8 h -16 -16 v 8 8 h -8 -8 v 8 8 H 128 80 Z m 80,-64 v -8 h 8 8 v -8 -8 h 8 8 v -16 -16 h -8 -8 v -8 -8 h -8 -8 v -8 -8 H 128 96 v 8 8 h -8 -8 v 8 8 h -8 -8 v 16 16 h 8 8 v 8 8 h 8 8 v 8 8 h 32 32 z M 144,72 v -8 h 8 8 V 48 32 H 128 96 v 16 16 h 8 8 v 8 8 h 16 16 z M 112,56 v -8 h 16 16 v 8 8 h -16 -16 z"
       id="path1" />
  </g>
</svg>
