<?xml version="1.0" encoding="UTF-8" standalone="no"?>
<!-- Created with Inkscape (http://www.inkscape.org/) -->

<svg
   version="1.1"
   id="svg1"
   width="256"
   height="256"
   viewBox="0 0 256 256"
   xmlns:xlink="http://www.w3.org/1999/xlink"
   xmlns="http://www.w3.org/2000/svg"
   xmlns:svg="http://www.w3.org/2000/svg">
  <defs
     id="defs1" />
  <g
     id="g1">
    <path
       d="m 96,248 v -8 h -8 -8 v -8 -8 h -8 -8 v -8 -8 h -8 -8 v -8 -8 H 40 32 V 176 160 H 24 16 V 88 16 h 8 8 V 8 0 h 96 96 v 8 8 h 8 8 v 72 72 h -8 -8 v 16 16 h -8 -8 v 8 8 h -8 -8 v 8 8 h -8 -8 v 8 8 h -8 -8 v 8 8 H 128 96 Z m 48,-96 v -40 h 8 8 v 8 8 h 8 8 v 8 8 h 8 8 V 112 80 h -8 -8 v -8 -8 h -8 -8 v -8 -8 h -8 -8 v -8 -8 h -16 -16 v 8 8 h -8 -8 v 8 8 h -8 -8 v 8 8 h -8 -8 v 32 32 h 8 8 v -8 -8 h 8 8 v -8 -8 h 8 8 v 40 40 h 16 16 z"
       id="path1" />
  </g>
</svg>
