<?xml version="1.0" encoding="UTF-8" standalone="no"?>
<!-- Created with Inkscape (http://www.inkscape.org/) -->

<svg
   version="1.1"
   id="svg1"
   width="256"
   height="256"
   viewBox="0 0 256 256"
   xmlns:xlink="http://www.w3.org/1999/xlink"
   xmlns="http://www.w3.org/2000/svg"
   xmlns:svg="http://www.w3.org/2000/svg">
  <defs
     id="defs1" />
  <g
     id="g1">

    <path
       d="m 48,248 v -8 h -8 -8 v -8 -8 h -8 -8 v -8 -8 H 8 0 v -40 -40 h 8 8 v -8 -8 h 8 8 v -8 -8 h 8 8 v -8 -8 h 40 40 v 8 8 h 8 8 v 8 8 h 8 8 v 8 8 h 8 8 v 40 40 h -8 -8 v 8 8 h -8 -8 v 8 8 h -8 -8 v 8 8 H 88 48 Z m 64,-80 V 144 H 88 64 v 24 24 h 24 24 z m 64,-64 v -8 h -8 -8 v -8 -8 h -8 -8 V 56 32 h 8 8 v -8 -8 h 8 8 V 8 0 h 24 24 v 8 8 h 8 8 v 8 8 h 8 8 v 24 24 h -8 -8 v 8 8 h -8 -8 v 8 8 h -24 -24 z m 32,-48 v -8 h -8 -8 v 8 8 h 8 8 z"
       id="path1" />
  </g>
</svg>
