<?xml version="1.0" encoding="UTF-8" standalone="no"?>
<!-- Created with Inkscape (http://www.inkscape.org/) -->

<svg
   version="1.1"
   id="svg1"
   width="256"
   height="256"
   viewBox="0 0 256 256"
   xmlns:xlink="http://www.w3.org/1999/xlink"
   xmlns="http://www.w3.org/2000/svg"
   xmlns:svg="http://www.w3.org/2000/svg">
  <defs
     id="defs1" />
  <g
     id="g1">
    <path
       d="m 80,248 v -8 h 8 8 v -8 -8 h -8 -8 v -8 -8 h 8 8 v -8 -8 h -8 -8 v -8 -8 h 8 8 v -8 -8 H 64 32 v 8 8 H 24 16 V 152 128 H 8 0 v -8 -8 h 8 8 V 56 0 h 8 8 v 56 56 h 8 8 v 8 8 h -8 -8 v 8 8 h 32 32 v -8 -8 h 8 8 v -8 -8 h -8 -8 v -8 -8 H 88 80 V 72 48 h 8 8 v -8 -8 h 32 32 v 8 8 h 8 8 v 24 24 h -8 -8 v 8 8 h -8 -8 v 8 8 h 8 8 v 8 8 h 32 32 v -8 -8 h -8 -8 v -8 -8 h 8 8 V 56 0 h 8 8 v 56 56 h 8 8 v 8 8 h -8 -8 v 24 24 h -8 -8 v -8 -8 h -32 -32 v 8 8 h 8 8 v 8 8 h -8 -8 v 8 8 h 8 8 v 8 8 h -8 -8 v 8 8 h 8 8 v 8 8 h -16 -16 v -16 -16 h 8 8 v -8 -8 h -16 -16 v 8 8 h -8 -8 v 16 16 H 96 80 Z m 32,-32 v -8 h -8 -8 v 8 8 h 8 8 z m 16,-32 v -8 H 112 96 v 8 8 h 16 16 z m 32,0 v -8 h -8 -8 v 8 8 h 8 8 z m -48,-32 v -8 h -8 -8 v 8 8 h 8 8 z m 48,0 v -8 h -16 -16 v 8 8 h 16 16 z M 112,72 v -8 h -8 -8 v 8 8 h 8 8 z m 48,0 v -8 h -8 -8 v 8 8 h 8 8 z"
       id="path1" />
  </g>
</svg>
