<?xml version="1.0" encoding="UTF-8" standalone="no"?>
<!-- Created with Inkscape (http://www.inkscape.org/) -->

<svg
   version="1.1"
   id="svg1"
   width="256"
   height="256"
   viewBox="0 0 256 256"
   xmlns:xlink="http://www.w3.org/1999/xlink"
   xmlns="http://www.w3.org/2000/svg"
   xmlns:svg="http://www.w3.org/2000/svg">
  <defs
     id="defs1" />
  <g
     id="g1">
    <path
       d="m 64,248 v -8 h -8 -8 v -24 -24 h 8 8 v -8 -8 H 48 32 v -8 -8 h -8 -8 v -8 -8 H 8 0 v -16 -16 h 8 8 v 16 16 h 8 8 v 8 8 h 16 16 v -8 -8 h -8 -8 v -8 -8 H 40 32 V 112 96 H 24 16 V 80 64 h 8 8 v 16 16 h 8 8 v 16 16 h 8 8 v -8 -8 h 8 8 v -8 -8 H 72 64 V 88 80 H 56 48 V 56 32 h 8 8 v 24 24 h 8 8 v 8 8 h 8 8 V 80 64 H 88 80 V 40 16 h 8 8 v 24 24 h 8 8 v 8 8 h 16 16 v -8 -8 h 8 8 V 40 16 h 8 8 v 24 24 h -8 -8 v 16 16 h 8 8 v -8 -8 h 8 8 V 56 32 h 8 8 v 24 24 h -8 -8 v 8 8 h -8 -8 v 8 8 h 8 8 v 8 8 h 8 8 V 112 96 h 8 8 V 80 64 h 8 8 v 16 16 h -8 -8 v 16 16 h -8 -8 v 8 8 h -8 -8 v 8 8 h 16 16 v -8 -8 h 8 8 v -16 -16 h 8 8 v 16 16 h -8 -8 v 8 8 h -8 -8 v 8 8 h -16 -16 v 8 8 h 8 8 v 24 24 h -8 -8 v 8 8 h -8 -8 v -8 -8 h 8 8 v -24 -24 h -8 -8 v 16 16 h -8 -8 v 8 8 h -8 -8 v -8 -8 h 8 8 v -8 -8 H 128 96 v 8 8 h 8 8 v 8 8 h -8 -8 v -8 -8 h -8 -8 v -16 -16 h -8 -8 v 24 24 h 8 8 v 8 8 h -8 -8 z m 48,-88 V 144 H 96 80 v 8 8 h 8 8 v 8 8 h 8 8 z m 48,8 v -8 h 8 8 v -8 -8 h -16 -16 v 16 16 h 8 8 z"
       id="path1" />
  </g>
</svg>
