<?xml version="1.0" encoding="UTF-8" standalone="no"?>
<!-- Created with Inkscape (http://www.inkscape.org/) -->

<svg
   version="1.1"
   id="svg1"
   width="256"
   height="256"
   viewBox="0 0 256 256"
   xmlns:xlink="http://www.w3.org/1999/xlink"
   xmlns="http://www.w3.org/2000/svg"
   xmlns:svg="http://www.w3.org/2000/svg">
  <defs
     id="defs1" />
  <g
     id="g1">
    <path
       d="m 64,248 v -8 h -8 -8 v -8 -8 h -8 -8 v -8 -8 h -8 -8 v -8 -8 H 8 0 V 144 96 h 16 16 v 8 8 h 8 8 v 8 8 h 8 8 v 8 8 h 8 8 v 8 8 h 8 8 v -8 -8 h 8 8 v -8 -8 h 8 8 v -8 -8 h 8 8 v -8 -8 h 8 8 v -8 -8 h 8 8 v -8 -8 h 8 8 v -8 -8 h 8 8 v -8 -8 h 8 8 v -8 -8 h 16 16 v 48 48 h -8 -8 v 8 8 h -8 -8 v 8 8 h -8 -8 v 8 8 h -8 -8 v 8 8 h -8 -8 v 8 8 h -8 -8 v 8 8 h -8 -8 v 8 8 h -8 -8 v 8 8 h -8 -8 v 8 8 H 88 64 Z"
       id="path1" />
  </g>
</svg>
