<?xml version="1.0" encoding="UTF-8" standalone="no"?>
<!-- Created with Inkscape (http://www.inkscape.org/) -->

<svg
   version="1.1"
   id="svg1"
   width="256"
   height="256"
   viewBox="0 0 256 256"
   xmlns:xlink="http://www.w3.org/1999/xlink"
   xmlns="http://www.w3.org/2000/svg"
   xmlns:svg="http://www.w3.org/2000/svg">
  <defs
     id="defs1" />
  <g
     id="g1">
    <path
       d="m 0,232 v -24 h 8 8 v -8 -8 h 8 8 v -8 -8 h 8 8 v -8 -8 h -8 -8 v -8 -8 H 24 16 V 120 96 h 8 8 v 8 8 h 8 8 v 8 8 h 8 8 v 8 8 h 8 8 v -8 -8 h 8 8 v -8 -8 h 8 8 v -8 -8 h 8 8 v -8 -8 h 8 8 v -8 -8 h 8 8 v -8 -8 h 8 8 v -8 -8 h 8 8 v -8 -8 h 8 8 V 8 0 h 24 24 v 24 24 h -8 -8 v 8 8 h -8 -8 v 8 8 h -8 -8 v 8 8 h -8 -8 v 8 8 h -8 -8 v 8 8 h -8 -8 v 8 8 h -8 -8 v 8 8 h -8 -8 v 8 8 h -8 -8 v 8 8 h 8 8 v 8 8 h 8 8 v 8 8 h 8 8 v 8 8 h -24 -24 v -8 -8 h -8 -8 v -8 -8 h -8 -8 v 8 8 h -8 -8 v 8 8 h -8 -8 v 8 8 H 24 0 Z"
       id="path1" />
  </g>
</svg>
