<?xml version="1.0" encoding="UTF-8" standalone="no"?>
<!-- Created with Inkscape (http://www.inkscape.org/) -->

<svg
   version="1.1"
   id="svg1"
   width="256"
   height="256"
   viewBox="0 0 256 256"
   xmlns:xlink="http://www.w3.org/1999/xlink"
   xmlns="http://www.w3.org/2000/svg"
   xmlns:svg="http://www.w3.org/2000/svg">
  <defs
     id="defs1" />
  <g
     id="g1">
    <path
       d="M 16,144 V 32 H 8 0 v -8 -8 h 8 8 V 8 0 h 8 8 v 8 8 h 8 8 v 8 8 h -8 -8 v 64 64 H 56 80 V 144 128 H 72 64 V 80 32 h 8 8 v -8 -8 h 48 48 v 8 8 h 8 8 v 48 48 h -8 -8 v 16 16 h 8 8 v 8 8 h 8 8 v 24 24 h -8 -8 v -24 -24 h -8 -8 v 40 40 h -8 -8 v -8 -8 H 128 96 v 8 8 H 88 80 V 216 176 H 56 32 v 40 40 h -8 -8 z m 96,-16 v -16 h 16 16 v 16 16 h 8 8 V 120 96 H 128 96 v 24 24 h 8 8 z m 0,-64 V 48 h -8 -8 v 16 16 h 8 8 z m 48,0 V 48 h -8 -8 v 16 16 h 8 8 z M 32,24 v -8 h -8 -8 v 8 8 h 8 8 z"
       id="path1" />
  </g>
</svg>
